<svg version="1.0" xmlns="http://www.w3.org/2000/svg"
  viewBox="0 0 500 500">
<style>
  .logo { fill: #1a1a1a; }
  @media (prefers-color-scheme: dark) {
    .logo { fill: #e8e8e8; }
  }
</style>
<g class="logo" transform="translate(0, 500) scale(0.1, -0.1)">
<path d="M2496 4371 c-46 -10 -43 -29 6 -35 304 -40 447 -75 668 -168 223 -94
370 -188 483 -308 98 -104 137 -180 137 -267 0 -63 -1 -65 -51 -118 -102 -108
-239 -150 -459 -142 -117 4 -147 9 -225 36 -103 35 -183 39 -255 13 -77 -29
-168 -83 -238 -141 -92 -77 -141 -109 -200 -131 -97 -37 -188 -52 -290 -48
-87 3 -105 7 -177 41 -44 21 -129 70 -189 109 -60 39 -141 85 -180 102 -68 30
-76 31 -206 30 -122 -1 -144 -4 -230 -32 -190 -62 -330 -177 -381 -310 -49
-132 -64 -249 -64 -512 0 -218 3 -257 23 -355 48 -230 150 -483 267 -659 285
-433 704 -718 1211 -822 107 -22 164 -27 334 -31 205 -5 280 1 414 32 95 22
109 31 73 44 -20 8 -70 8 -175 0 -172 -13 -376 -7 -494 16 -292 56 -386 84
-573 175 -241 116 -515 339 -642 522 -112 161 -146 269 -146 463 1 479 297
811 728 818 115 2 218 -20 307 -64 221 -110 390 -257 498 -435 254 -418 559
-655 809 -629 107 11 192 59 365 204 200 168 279 219 397 256 53 17 58 17 108
0 58 -19 77 -41 87 -101 14 -92 39 -81 72 31 33 113 60 260 73 402 35 378 -81
827 -300 1160 -227 346 -544 595 -954 748 -129 48 -222 69 -392 89 -203 24
-207 24 -239 17z"/>
<path d="M2047 3615 c-172 -61 -166 -318 9 -375 87 -29 196 13 237 92 41 80
32 159 -26 225 -58 66 -139 87 -220 58z"/>
<path d="M3186 1445 c-58 -21 -88 -46 -113 -95 -28 -54 -29 -120 -4 -175 81
-179 346 -139 377 57 13 79 -41 173 -121 209 -48 22 -86 23 -139 4z"/>
</g>
</svg>
