<svg xmlns="http://www.w3.org/2000/svg" xmlns:xlink="http://www.w3.org/1999/xlink" width="500" zoomAndPan="magnify" viewBox="0 0 375 374.999991" height="500" preserveAspectRatio="xMidYMid meet" version="1.0"><path fill="#191919" d="M 55.296875 0 L 318.601562 0 L 318.601562 3.660156 L 329.957031 3.660156 L 329.957031 7.324219 L 337.644531 7.324219 L 337.644531 10.984375 L 341.308594 10.984375 L 341.308594 14.648438 L 344.96875 14.648438 L 344.96875 18.675781 L 349 18.675781 L 349 22.339844 L 356.324219 22.339844 L 356.324219 29.664062 L 359.984375 29.664062 L 359.984375 33.691406 L 364.011719 33.691406 L 364.011719 37.351562 L 367.675781 37.351562 L 367.675781 45.042969 L 371.335938 45.042969 L 371.335938 52.367188 L 375 52.367188 L 375 322.996094 L 371.335938 322.996094 L 371.335938 334.714844 L 367.675781 334.714844 L 367.675781 338.011719 L 364.011719 338.011719 L 364.011719 346.070312 L 359.984375 346.070312 L 359.984375 349.363281 L 356.6875 349.730469 L 356.324219 353.394531 L 352.660156 353.757812 L 352.292969 357.054688 L 349 357.054688 L 349 361.082031 L 344.96875 361.082031 L 344.96875 364.378906 L 341.308594 364.378906 L 341.308594 368.40625 L 333.617188 368.40625 L 333.617188 372.4375 L 325.925781 372.4375 L 325.925781 375 L 47.972656 375 L 47.972656 372.4375 L 40.285156 372.4375 L 40.285156 368.40625 L 36.621094 368.40625 L 36.621094 364.378906 L 28.929688 364.378906 L 28.929688 361.082031 L 25.636719 361.082031 L 25.636719 357.054688 L 21.605469 357.054688 L 21.605469 353.394531 L 17.578125 353.394531 L 17.578125 349.363281 L 13.917969 349.363281 L 13.917969 342.039062 L 10.253906 342.039062 L 10.253906 338.011719 L 6.59375 338.011719 L 6.59375 330.6875 L 2.5625 330.6875 L 2.5625 322.996094 L 0 322.996094 L 0 56.03125 L 2.5625 56.03125 L 2.5625 48.707031 L 6.59375 48.707031 L 6.59375 41.015625 L 10.253906 41.015625 L 10.253906 33.691406 L 13.917969 33.691406 L 13.917969 29.664062 L 17.578125 29.664062 L 17.578125 26 L 21.605469 26 L 21.605469 22.339844 L 25.269531 21.972656 L 25.636719 18.675781 L 28.929688 18.675781 L 28.929688 14.648438 L 32.960938 14.648438 L 32.960938 10.984375 L 40.285156 10.984375 L 40.285156 7.324219 L 47.972656 7.324219 L 47.972656 3.660156 L 55.296875 3.660156 Z M 55.296875 0 " fill-opacity="1" fill-rule="nonzero"/><path fill="#191919" d="M 164.429688 74.707031 L 217.164062 74.707031 L 217.164062 78.734375 L 228.515625 78.734375 L 228.515625 82.398438 L 239.5 82.398438 L 239.5 86.425781 L 247.191406 86.425781 L 247.191406 89.722656 L 250.855469 89.722656 L 250.855469 93.75 L 258.542969 93.75 L 258.542969 97.777344 L 262.574219 97.777344 L 262.574219 101.074219 L 265.867188 101.074219 L 265.867188 105.101562 L 269.898438 105.101562 L 269.898438 108.765625 L 273.925781 108.765625 L 273.925781 112.425781 L 277.222656 112.425781 L 277.222656 116.089844 L 281.25 116.089844 L 281.25 120.117188 L 284.910156 120.117188 L 284.910156 127.808594 L 288.574219 127.808594 L 288.574219 135.132812 L 292.234375 135.132812 L 292.234375 142.457031 L 296.265625 142.457031 L 296.265625 153.808594 L 299.925781 153.808594 L 299.925781 168.824219 L 303.589844 168.824219 L 303.589844 199.21875 L 299.925781 199.21875 L 299.925781 218.261719 L 296.265625 218.261719 L 296.265625 225.585938 L 292.234375 225.585938 L 292.234375 236.570312 L 288.574219 236.570312 L 288.574219 240.601562 L 284.910156 240.601562 L 284.910156 247.925781 L 281.25 247.925781 L 281.25 251.953125 L 277.222656 251.953125 L 277.222656 255.613281 L 273.558594 255.613281 L 273.558594 259.277344 L 269.898438 259.277344 L 269.898438 262.9375 L 265.867188 262.9375 L 265.867188 266.96875 L 262.574219 266.96875 L 262.574219 270.628906 L 258.542969 270.628906 L 258.542969 274.292969 L 254.882812 274.292969 L 254.882812 277.953125 L 247.558594 277.953125 L 247.558594 281.980469 L 239.5 281.980469 L 239.5 285.644531 L 232.175781 285.644531 L 232.175781 289.304688 L 220.824219 289.304688 L 220.824219 293.335938 L 198.121094 293.335938 L 198.121094 296.996094 L 179.441406 296.996094 L 179.441406 293.335938 L 160.765625 293.335938 L 160.765625 289.304688 L 156.738281 289.304688 L 156.738281 285.644531 L 160.765625 285.644531 L 160.765625 247.925781 L 157.105469 247.925781 L 157.105469 244.261719 L 160.765625 244.261719 L 160.765625 233.277344 L 156.738281 233.277344 L 156.738281 206.542969 L 153.441406 206.542969 L 153.441406 199.21875 L 149.414062 199.21875 L 149.414062 247.925781 L 145.386719 247.925781 L 145.386719 285.644531 L 138.0625 285.644531 L 138.0625 281.980469 L 130.371094 281.980469 L 130.371094 277.953125 L 127.074219 277.953125 L 127.074219 274.292969 L 119.382812 274.292969 L 119.382812 270.628906 L 115.355469 270.628906 L 115.355469 266.96875 L 111.695312 266.96875 L 111.695312 262.9375 L 108.03125 262.9375 L 108.03125 259.277344 L 104.371094 259.277344 L 104.371094 255.613281 L 100.707031 255.613281 L 100.707031 251.953125 L 96.679688 251.953125 L 96.679688 247.925781 L 93.015625 247.925781 L 93.015625 199.21875 L 88.988281 199.21875 L 88.988281 195.191406 L 93.015625 195.191406 L 93.015625 187.867188 L 89.355469 187.867188 L 89.355469 183.835938 L 93.015625 183.835938 L 93.015625 176.511719 L 88.988281 176.511719 L 88.988281 172.851562 L 93.015625 172.851562 L 93.015625 123.777344 L 96.679688 123.777344 L 96.679688 116.089844 L 100.707031 116.089844 L 100.707031 112.425781 L 104.003906 112.425781 L 104.003906 108.765625 L 108.03125 108.765625 L 108.03125 105.101562 L 111.695312 105.101562 L 111.695312 101.074219 L 115.355469 101.074219 L 115.355469 97.777344 L 123.046875 97.777344 L 123.046875 93.75 L 127.074219 93.75 L 127.074219 89.722656 L 134.398438 89.722656 L 134.398438 86.425781 L 142.089844 86.425781 L 142.089844 82.398438 L 145.386719 82.398438 L 145.386719 172.851562 L 149.414062 172.851562 L 149.414062 168.824219 L 153.441406 168.824219 L 153.441406 161.5 L 156.738281 161.5 L 156.738281 78.734375 L 164.429688 78.734375 Z M 164.429688 74.707031 " fill-opacity="1" fill-rule="nonzero"/><path fill="#e3e3e3" d="M 149.414062 7.324219 L 153.441406 7.324219 L 153.441406 10.984375 L 156.738281 10.984375 L 156.738281 26 L 160.765625 26 L 160.765625 56.03125 L 157.105469 56.03125 L 157.105469 63.71875 L 217.164062 63.71875 L 217.164062 67.382812 L 224.488281 67.382812 L 224.488281 63.71875 L 221.191406 63.71875 L 221.191406 60.058594 L 239.5 60.058594 L 239.5 67.382812 L 232.175781 67.382812 L 232.175781 71.410156 L 239.5 71.410156 L 239.5 74.707031 L 247.558594 74.707031 L 247.558594 78.734375 L 254.882812 78.734375 L 254.882812 82.398438 L 262.207031 82.398438 L 262.207031 86.425781 L 265.867188 86.425781 L 265.867188 89.722656 L 269.898438 89.722656 L 269.898438 93.75 L 273.558594 93.75 L 273.558594 97.777344 L 277.222656 97.777344 L 277.222656 101.074219 L 281.25 101.074219 L 281.25 105.101562 L 284.910156 105.101562 L 284.910156 108.765625 L 288.574219 108.765625 L 288.574219 112.792969 L 292.234375 112.792969 L 292.234375 116.089844 L 296.265625 116.089844 L 296.265625 120.117188 L 333.617188 120.117188 L 333.617188 123.777344 L 326.292969 123.777344 L 326.292969 127.441406 L 337.644531 127.441406 L 337.644531 131.46875 L 318.601562 131.46875 L 318.601562 135.132812 L 303.589844 135.132812 L 303.589844 139.160156 L 307.617188 139.160156 L 307.617188 150.144531 L 311.277344 150.144531 L 311.277344 169.1875 L 314.941406 169.1875 L 314.941406 202.878906 L 311.277344 202.878906 L 311.277344 218.261719 L 307.617188 218.261719 L 307.617188 229.246094 L 303.589844 229.246094 L 303.589844 236.570312 L 299.925781 236.570312 L 299.925781 244.261719 L 296.265625 244.261719 L 296.265625 251.953125 L 292.234375 251.953125 L 292.234375 255.613281 L 288.574219 255.613281 L 288.574219 259.277344 L 284.910156 259.277344 L 284.910156 266.96875 L 281.25 266.96875 L 281.25 270.628906 L 277.222656 270.628906 L 277.222656 274.292969 L 269.898438 274.292969 L 269.898438 277.953125 L 265.867188 277.953125 L 265.867188 281.980469 L 262.207031 281.980469 L 262.207031 285.644531 L 254.882812 285.644531 L 254.882812 289.304688 L 250.855469 289.304688 L 250.855469 293.335938 L 243.53125 293.335938 L 243.53125 296.996094 L 239.5 296.996094 L 239.5 300.660156 L 292.234375 300.660156 L 292.234375 308.347656 L 296.265625 308.347656 L 296.265625 312.011719 L 93.015625 312.011719 L 93.015625 323.363281 L 89.355469 323.363281 L 89.355469 330.6875 L 85.328125 330.6875 L 85.328125 327.027344 L 81.664062 327.027344 L 81.664062 312.011719 L 78.003906 312.011719 L 78.003906 308.347656 L 70.3125 308.347656 L 70.3125 300.660156 L 81.664062 300.660156 L 81.664062 202.878906 L 77.636719 202.878906 L 77.636719 165.160156 L 81.664062 165.160156 L 81.664062 146.484375 L 77.636719 146.484375 L 77.636719 97.777344 L 81.664062 97.777344 L 81.664062 74.707031 L 70.3125 74.707031 L 70.3125 86.425781 L 66.652344 86.425781 L 66.652344 89.722656 L 70.3125 89.722656 L 70.3125 105.101562 L 59.328125 105.101562 L 59.328125 48.339844 L 62.621094 48.339844 L 62.621094 45.042969 L 66.652344 45.042969 L 66.652344 60.058594 L 73.972656 60.058594 L 73.972656 63.71875 L 81.664062 63.71875 L 81.664062 60.058594 L 88.988281 60.058594 L 88.988281 63.71875 L 145.386719 63.71875 L 145.386719 33.324219 L 149.414062 33.324219 Z M 164.429688 74.707031 L 164.429688 78.734375 L 156.738281 78.734375 L 156.738281 161.5 L 153.441406 161.5 L 153.441406 168.824219 L 149.414062 168.824219 L 149.414062 172.851562 L 145.386719 172.851562 L 145.386719 82.398438 L 142.089844 82.398438 L 142.089844 86.425781 L 134.398438 86.425781 L 134.398438 89.722656 L 127.074219 89.722656 L 127.074219 93.75 L 123.046875 93.75 L 123.046875 97.777344 L 115.355469 97.777344 L 115.355469 101.074219 L 111.695312 101.074219 L 111.695312 105.101562 L 108.03125 105.101562 L 108.03125 108.765625 L 104.003906 108.765625 L 104.003906 112.425781 L 100.707031 112.425781 L 100.707031 116.089844 L 96.679688 116.089844 L 96.679688 123.777344 L 93.015625 123.777344 L 93.015625 172.851562 L 88.988281 172.851562 L 88.988281 176.511719 L 93.015625 176.511719 L 93.015625 183.835938 L 89.355469 183.835938 L 89.355469 187.867188 L 93.015625 187.867188 L 93.015625 195.191406 L 88.988281 195.191406 L 88.988281 199.21875 L 93.015625 199.21875 L 93.015625 247.925781 L 96.679688 247.925781 L 96.679688 251.953125 L 100.707031 251.953125 L 100.707031 255.613281 L 104.371094 255.613281 L 104.371094 259.277344 L 108.03125 259.277344 L 108.03125 262.9375 L 111.695312 262.9375 L 111.695312 266.96875 L 115.355469 266.96875 L 115.355469 270.628906 L 119.382812 270.628906 L 119.382812 274.292969 L 127.074219 274.292969 L 127.074219 277.953125 L 130.371094 277.953125 L 130.371094 281.980469 L 138.0625 281.980469 L 138.0625 285.644531 L 145.386719 285.644531 L 145.386719 247.925781 L 149.414062 247.925781 L 149.414062 199.21875 L 153.441406 199.21875 L 153.441406 206.542969 L 156.738281 206.542969 L 156.738281 233.277344 L 160.765625 233.277344 L 160.765625 244.261719 L 157.105469 244.261719 L 157.105469 247.925781 L 160.765625 247.925781 L 160.765625 285.644531 L 156.738281 285.644531 L 156.738281 289.304688 L 160.765625 289.304688 L 160.765625 293.335938 L 179.441406 293.335938 L 179.441406 296.996094 L 198.121094 296.996094 L 198.121094 293.335938 L 220.824219 293.335938 L 220.824219 289.304688 L 232.175781 289.304688 L 232.175781 285.644531 L 239.5 285.644531 L 239.5 281.980469 L 247.558594 281.980469 L 247.558594 277.953125 L 254.882812 277.953125 L 254.882812 274.292969 L 258.542969 274.292969 L 258.542969 270.628906 L 262.574219 270.628906 L 262.574219 266.96875 L 265.867188 266.96875 L 265.867188 262.9375 L 269.898438 262.9375 L 269.898438 259.277344 L 273.558594 259.277344 L 273.558594 255.613281 L 277.222656 255.613281 L 277.222656 251.953125 L 281.25 251.953125 L 281.25 247.925781 L 284.910156 247.925781 L 284.910156 240.601562 L 288.574219 240.601562 L 288.574219 236.570312 L 292.234375 236.570312 L 292.234375 225.585938 L 296.265625 225.585938 L 296.265625 218.261719 L 299.925781 218.261719 L 299.925781 199.21875 L 303.589844 199.21875 L 303.589844 168.824219 L 299.925781 168.824219 L 299.925781 153.808594 L 296.265625 153.808594 L 296.265625 142.457031 L 292.234375 142.457031 L 292.234375 135.132812 L 288.574219 135.132812 L 288.574219 127.808594 L 284.910156 127.808594 L 284.910156 120.117188 L 281.25 120.117188 L 281.25 116.089844 L 277.222656 116.089844 L 277.222656 112.425781 L 273.925781 112.425781 L 273.925781 108.765625 L 269.898438 108.765625 L 269.898438 105.101562 L 265.867188 105.101562 L 265.867188 101.074219 L 262.574219 101.074219 L 262.574219 97.777344 L 258.542969 97.777344 L 258.542969 93.75 L 250.855469 93.75 L 250.855469 89.722656 L 247.191406 89.722656 L 247.191406 86.425781 L 239.5 86.425781 L 239.5 82.398438 L 228.515625 82.398438 L 228.515625 78.734375 L 217.164062 78.734375 L 217.164062 74.707031 Z M 164.429688 74.707031 " fill-opacity="1" fill-rule="nonzero"/><path fill="#191919" d="M 142.089844 82.398438 L 145.386719 82.398438 L 145.386719 172.851562 L 149.414062 172.851562 L 149.414062 247.925781 L 145.386719 247.925781 L 145.386719 285.644531 L 138.0625 285.644531 L 138.0625 281.980469 L 130.371094 281.980469 L 130.371094 277.953125 L 127.074219 277.953125 L 127.074219 274.292969 L 119.382812 274.292969 L 119.382812 270.628906 L 115.355469 270.628906 L 115.355469 266.96875 L 111.695312 266.96875 L 111.695312 262.9375 L 108.03125 262.9375 L 108.03125 259.277344 L 104.371094 259.277344 L 104.371094 255.613281 L 100.707031 255.613281 L 100.707031 251.953125 L 96.679688 251.953125 L 96.679688 247.925781 L 93.015625 247.925781 L 93.015625 199.21875 L 88.988281 199.21875 L 88.988281 195.191406 L 93.015625 195.191406 L 93.015625 187.867188 L 89.355469 187.867188 L 89.355469 183.835938 L 93.015625 183.835938 L 93.015625 176.511719 L 88.988281 176.511719 L 88.988281 172.851562 L 93.015625 172.851562 L 93.015625 123.777344 L 96.679688 123.777344 L 96.679688 116.089844 L 100.707031 116.089844 L 100.707031 112.425781 L 104.003906 112.425781 L 104.003906 108.765625 L 108.03125 108.765625 L 108.03125 105.101562 L 111.695312 105.101562 L 111.695312 101.074219 L 115.355469 101.074219 L 115.355469 97.777344 L 123.046875 97.777344 L 123.046875 93.75 L 127.074219 93.75 L 127.074219 89.722656 L 134.398438 89.722656 L 134.398438 86.425781 L 142.089844 86.425781 Z M 142.089844 82.398438 " fill-opacity="1" fill-rule="nonzero"/><path fill="#191818" d="M 187.132812 153.808594 L 190.796875 153.808594 L 190.796875 157.835938 L 202.148438 157.835938 L 202.148438 161.5 L 205.808594 161.5 L 205.808594 165.160156 L 209.472656 165.160156 L 209.839844 165.527344 L 209.839844 168.824219 L 213.5 168.824219 L 213.5 176.511719 L 217.164062 176.511719 L 217.164062 191.894531 L 213.5 191.894531 L 213.5 202.878906 L 209.839844 202.878906 L 209.839844 206.542969 L 209.472656 206.910156 L 205.808594 206.910156 L 205.808594 210.203125 L 198.121094 210.203125 L 198.121094 214.234375 L 175.78125 214.234375 L 175.78125 210.203125 L 171.753906 210.203125 L 171.753906 206.910156 L 168.457031 206.910156 L 168.457031 202.878906 L 164.429688 202.878906 L 164.429688 199.21875 L 160.765625 199.21875 L 160.765625 172.851562 L 164.429688 172.851562 L 164.429688 165.527344 L 168.457031 165.527344 L 168.457031 161.5 L 175.78125 161.5 L 175.78125 157.835938 L 187.132812 157.835938 Z M 187.132812 153.808594 " fill-opacity="1" fill-rule="nonzero"/><path fill="#a45f5c" d="M 156.738281 78.734375 L 157.105469 78.734375 L 157.105469 157.835938 L 160.765625 157.835938 L 160.765625 153.808594 L 164.429688 153.808594 L 164.429688 150.144531 L 171.753906 150.144531 L 171.753906 146.484375 L 205.808594 146.484375 L 205.808594 150.144531 L 209.839844 150.144531 L 209.839844 153.808594 L 217.164062 153.808594 L 217.164062 161.5 L 221.191406 161.5 L 221.191406 165.160156 L 224.488281 165.160156 L 224.488281 176.511719 L 228.515625 176.511719 L 228.515625 195.191406 L 224.488281 195.191406 L 224.488281 202.878906 L 221.191406 202.878906 L 221.191406 210.203125 L 217.164062 210.203125 L 217.164062 214.234375 L 213.5 214.234375 L 213.5 218.261719 L 209.839844 218.261719 L 209.839844 221.558594 L 202.148438 221.558594 L 202.148438 225.585938 L 171.753906 225.585938 L 171.753906 221.558594 L 168.089844 221.558594 L 168.089844 218.261719 L 160.765625 218.261719 L 160.765625 214.234375 L 157.105469 214.234375 L 157.105469 232.910156 L 160.765625 232.910156 L 160.765625 233.277344 L 156.738281 233.277344 L 156.738281 206.542969 L 153.441406 206.542969 L 153.441406 199.21875 L 149.414062 199.21875 L 149.414062 168.824219 L 153.441406 168.824219 L 153.441406 161.5 L 156.738281 161.5 Z M 187.132812 153.808594 L 187.132812 157.835938 L 175.78125 157.835938 L 175.78125 161.5 L 168.457031 161.5 L 168.457031 165.527344 L 164.429688 165.527344 L 164.429688 172.851562 L 160.765625 172.851562 L 160.765625 199.21875 L 164.429688 199.21875 L 164.429688 202.878906 L 168.457031 202.878906 L 168.457031 206.910156 L 171.753906 206.910156 L 171.753906 210.203125 L 175.78125 210.203125 L 175.78125 214.234375 L 198.121094 214.234375 L 198.121094 210.203125 L 205.808594 210.203125 L 205.808594 206.910156 L 209.472656 206.910156 L 209.839844 206.542969 L 209.839844 202.878906 L 213.5 202.878906 L 213.5 191.894531 L 217.164062 191.894531 L 217.164062 176.511719 L 213.5 176.511719 L 213.5 168.824219 L 209.839844 168.824219 L 209.839844 165.527344 L 209.472656 165.160156 L 205.808594 165.160156 L 205.808594 161.5 L 202.148438 161.5 L 202.148438 157.835938 L 190.796875 157.835938 L 190.796875 153.808594 Z M 187.132812 153.808594 " fill-opacity="1" fill-rule="nonzero"/><path fill="#e5e5e5" d="M 247.558594 60.058594 L 307.617188 60.058594 L 307.617188 63.71875 L 311.277344 63.71875 L 311.277344 60.058594 L 315.308594 60.058594 L 315.308594 63.71875 L 318.601562 63.71875 L 318.601562 60.058594 L 322.632812 60.058594 L 322.632812 63.71875 L 329.957031 63.71875 L 329.957031 71.410156 L 326.292969 71.410156 L 326.292969 82.398438 L 329.957031 82.398438 L 329.957031 89.722656 L 322.632812 89.722656 L 322.632812 74.707031 L 284.910156 74.707031 L 284.910156 71.042969 L 247.558594 71.042969 L 247.558594 67.382812 L 254.882812 67.382812 L 254.882812 63.71875 L 247.558594 63.71875 Z M 55.296875 247.925781 L 66.652344 247.925781 L 66.652344 327.027344 L 55.296875 327.027344 Z M 55.296875 247.925781 " fill-opacity="1" fill-rule="nonzero"/><path fill="#1a1a1a" d="M 93.015625 262.9375 L 96.679688 262.9375 L 96.679688 266.96875 L 100.707031 266.96875 L 100.707031 270.628906 L 104.371094 270.628906 L 104.371094 274.292969 L 108.03125 274.292969 L 108.03125 277.953125 L 111.695312 277.953125 L 111.695312 281.980469 L 115.722656 281.980469 L 115.722656 285.644531 L 123.046875 285.644531 L 123.046875 289.304688 L 127.074219 289.304688 L 127.074219 293.335938 L 138.0625 293.335938 L 138.0625 296.996094 L 127.074219 296.996094 L 127.074219 300.660156 L 93.015625 300.660156 L 93.015625 296.996094 L 88.988281 296.996094 L 88.988281 293.335938 L 93.015625 293.335938 L 93.015625 289.304688 L 88.988281 289.304688 L 88.988281 285.644531 L 93.015625 285.644531 Z M 93.015625 262.9375 " fill-opacity="1" fill-rule="nonzero"/><path fill="#e4e4e4" d="M 318.601562 277.953125 L 329.957031 277.953125 L 329.957031 285.644531 L 326.292969 285.644531 L 326.292969 296.996094 L 329.957031 296.996094 L 329.957031 323.363281 L 326.292969 323.363281 L 326.292969 330.6875 L 322.632812 330.6875 L 322.632812 334.714844 L 318.601562 334.714844 L 318.601562 323.363281 L 314.941406 323.363281 L 314.941406 308.347656 L 296.265625 308.347656 L 296.265625 304.320312 L 318.601562 304.320312 L 318.601562 300.660156 L 315.308594 300.660156 L 315.308594 296.996094 L 318.601562 296.996094 Z M 318.601562 277.953125 " fill-opacity="1" fill-rule="nonzero"/><path fill="#1c1c1c" d="M 93.015625 74.707031 L 130.738281 74.707031 L 130.738281 78.734375 L 123.046875 78.734375 L 123.046875 82.398438 L 119.382812 82.398438 L 119.382812 86.425781 L 111.695312 86.425781 L 111.695312 89.722656 L 108.03125 89.722656 L 108.03125 93.75 L 104.003906 93.75 L 104.003906 97.777344 L 100.707031 97.777344 L 100.707031 101.441406 L 96.679688 101.441406 L 96.679688 105.101562 L 93.015625 105.101562 L 93.015625 101.074219 L 96.679688 101.074219 L 96.679688 86.425781 L 93.015625 86.425781 Z M 93.015625 74.707031 " fill-opacity="1" fill-rule="nonzero"/><path fill="#1d1d1d" d="M 134.398438 304.320312 L 164.429688 304.320312 L 164.429688 308.347656 L 134.398438 308.347656 Z M 134.398438 304.320312 " fill-opacity="1" fill-rule="nonzero"/></svg>