<svg xmlns="http://www.w3.org/2000/svg" xmlns:xlink="http://www.w3.org/1999/xlink" width="500" zoomAndPan="magnify" viewBox="0 0 375 374.999991" height="500" preserveAspectRatio="xMidYMid meet" version="1.0"><rect x="-37.5" width="450" fill="#191919" y="-37.499999" height="449.999989" fill-opacity="1"/><path fill="#c6b195" d="M 72.875 48.707031 L 98.875 48.707031 L 98.875 100.339844 L 142.089844 100.339844 L 142.089844 48.707031 L 167.722656 48.707031 L 167.722656 176.148438 L 142.089844 176.148438 L 142.089844 124.511719 L 98.875 124.511719 L 98.875 176.148438 L 72.875 176.148438 Z M 266.601562 48.707031 L 284.910156 48.707031 L 284.910156 117.554688 L 302.125 117.554688 L 302.125 141.722656 L 284.910156 141.722656 L 284.910156 151.976562 L 302.125 151.976562 L 302.125 176.148438 L 241.699219 176.148438 L 241.699219 151.976562 L 258.910156 151.976562 L 258.910156 141.722656 L 207.273438 141.722656 L 207.273438 108.03125 Z M 72.875 194.089844 L 98.875 194.089844 L 99.242188 238.769531 L 143.921875 194.089844 L 167.722656 194.089844 L 167.722656 205.445312 L 115.355469 257.8125 L 117.554688 260.375 L 132.933594 275.757812 L 135.863281 278.320312 L 167.722656 310.179688 L 167.722656 321.53125 L 143.921875 321.53125 L 99.242188 276.855469 L 98.875 321.53125 L 72.875 321.53125 Z M 207.273438 194.089844 L 233.277344 194.089844 L 233.640625 286.742188 L 235.105469 290.769531 L 236.9375 292.96875 L 236.9375 293.699219 L 238.402344 294.433594 L 241.332031 296.265625 L 244.628906 297.363281 L 264.769531 297.363281 L 268.433594 296.265625 L 272.09375 293.699219 L 274.292969 290.769531 L 275.757812 287.109375 L 276.121094 194.089844 L 302.125 194.089844 L 302.125 287.476562 L 301.023438 293.699219 L 299.195312 298.828125 L 296.265625 304.320312 L 292.96875 308.347656 L 287.839844 313.476562 L 282.347656 317.136719 L 276.488281 319.703125 L 271.363281 321.167969 L 269.164062 321.53125 L 240.234375 321.53125 L 234.007812 320.066406 L 228.515625 317.871094 L 223.753906 314.941406 L 220.09375 312.011719 L 215.699219 307.617188 L 212.402344 302.855469 L 209.472656 296.996094 L 208.007812 291.871094 L 207.273438 286.742188 Z M 207.273438 194.089844 " fill-opacity="1" fill-rule="nonzero"/><path fill="#181818" d="M 258.542969 91.550781 L 258.910156 91.550781 L 258.910156 117.554688 L 233.277344 117.554688 L 234.007812 116.089844 Z M 258.542969 91.550781 " fill-opacity="1" fill-rule="nonzero"/></svg>