<svg xmlns="http://www.w3.org/2000/svg" xmlns:xlink="http://www.w3.org/1999/xlink" width="500" zoomAndPan="magnify" viewBox="0 0 375 374.999991" height="500" preserveAspectRatio="xMidYMid meet" version="1.0"><rect x="-37.5" width="450" fill="#191919" y="-37.499999" height="449.999989" fill-opacity="1"/><path fill="#c6b195" d="M 71.046875 50.535156 L 97.046875 50.535156 L 97.046875 51.269531 L 98.144531 51.269531 L 98.144531 102.171875 L 139.890625 102.171875 L 139.890625 50.535156 L 165.894531 50.535156 L 165.894531 51.269531 L 166.992188 51.269531 L 166.992188 178.710938 L 140.992188 178.710938 L 140.992188 177.976562 L 139.890625 177.976562 L 139.890625 127.074219 L 98.144531 127.074219 L 98.144531 178.710938 L 72.144531 178.710938 L 72.144531 177.976562 L 71.046875 177.976562 Z M 264.402344 50.535156 L 283.082031 50.535156 L 283.082031 51.269531 L 284.179688 51.269531 L 284.179688 119.382812 L 300.292969 119.382812 L 300.292969 120.117188 L 301.390625 120.117188 L 301.390625 144.285156 L 284.179688 144.285156 L 284.179688 153.808594 L 300.292969 153.808594 L 300.292969 154.539062 L 301.390625 154.539062 L 301.390625 178.710938 L 240.964844 178.710938 L 240.964844 177.976562 L 239.867188 177.976562 L 239.867188 153.808594 L 257.078125 153.808594 L 257.078125 144.285156 L 206.542969 144.285156 L 206.542969 143.554688 L 205.445312 143.554688 L 205.445312 109.496094 Z M 71.046875 195.921875 L 97.046875 195.921875 L 97.046875 196.65625 L 98.144531 196.65625 L 98.511719 239.5 L 142.089844 195.921875 L 165.894531 195.921875 L 165.894531 196.65625 L 166.992188 196.65625 L 166.992188 208.007812 L 114.988281 260.007812 L 115.722656 261.472656 L 166.992188 312.742188 L 166.992188 324.097656 L 143.1875 324.097656 L 139.527344 320.800781 L 98.511719 279.785156 L 98.144531 324.097656 L 72.144531 324.097656 L 72.144531 323.363281 L 71.046875 323.363281 Z M 205.445312 195.921875 L 231.445312 195.921875 L 231.445312 196.65625 L 232.542969 196.65625 L 232.910156 289.304688 L 234.375 292.96875 L 235.839844 295.164062 L 238.769531 297.730469 L 241.699219 298.828125 L 264.039062 298.828125 L 267.699219 297.363281 L 271.363281 294.066406 L 273.191406 290.769531 L 273.925781 288.574219 L 274.292969 195.921875 L 300.292969 195.921875 L 300.292969 196.65625 L 301.390625 196.65625 L 301.390625 289.671875 L 300.292969 296.265625 L 298.09375 302.125 L 295.164062 307.25 L 291.136719 312.011719 L 287.839844 315.308594 L 282.714844 318.96875 L 276.488281 321.898438 L 271.363281 323.363281 L 266.601562 324.097656 L 241.332031 324.097656 L 236.207031 323.363281 L 229.613281 321.167969 L 224.121094 318.238281 L 219.726562 314.941406 L 216.0625 311.644531 L 213.132812 308.347656 L 209.472656 302.855469 L 206.910156 296.628906 L 205.808594 291.503906 L 205.445312 287.839844 Z M 205.445312 195.921875 " fill-opacity="1" fill-rule="nonzero"/><path fill="#1a1a19" d="M 256.714844 94.847656 L 257.078125 94.847656 L 257.078125 119.382812 L 232.542969 119.382812 L 234.742188 116.820312 Z M 256.714844 94.847656 " fill-opacity="1" fill-rule="nonzero"/></svg>